<svg xmlns="http://www.w3.org/2000/svg" viewBox="0 9.470000267028809 67.36000061035156 35.78999710083008" data-asc="0.9052734375" width="67.36000061035156" height="35.78999710083008">
  <defs/>
  <g fill="#ffffffff">
    <g transform="translate(0, 0)">
      <path d="M0 45.26L0 9.47L13.50 9.47Q17.07 9.47 18.95 9.81Q21.58 10.25 23.36 11.49Q25.15 12.72 26.23 14.94Q27.32 17.16 27.32 19.82Q27.32 24.39 24.41 27.55Q21.51 30.71 13.92 30.71L4.74 30.71L4.74 45.26L0 45.26M4.74 26.49L13.99 26.49Q18.58 26.49 20.51 24.78Q22.44 23.07 22.44 19.97Q22.44 17.72 21.30 16.13Q20.17 14.53 18.31 14.01Q17.11 13.70 13.89 13.70L4.74 13.70L4.74 26.49ZM33.20 45.26L33.20 9.47L40.33 9.47L48.80 34.81Q49.98 38.35 50.51 40.11Q51.12 38.16 52.42 34.38L60.99 9.47L67.36 9.47L67.36 45.26L62.79 45.26L62.79 15.31L52.39 45.26L48.12 45.26L37.77 14.79L37.77 45.26L33.20 45.26Z"/>
    </g>
  </g>
</svg>